<svg width="24" height="24" viewBox="0 0 24 24" fill="none" xmlns="http://www.w3.org/2000/svg">
<path d="M8.24914 12.6442L16.6789 20.0624C16.7764 20.1482 16.8946 20.2072 17.0218 20.2337C17.149 20.2601 17.2809 20.253 17.4045 20.2132C17.5282 20.1733 17.6394 20.102 17.7272 20.0062C17.815 19.9105 17.8764 19.7935 17.9054 19.6669L21.4317 4.27947C21.4622 4.14643 21.4558 4.00759 21.4132 3.87792C21.3706 3.74824 21.2934 3.63265 21.19 3.54359C21.0866 3.45453 20.9608 3.39539 20.8262 3.37253C20.6917 3.34967 20.5534 3.36397 20.4264 3.41388L3.1242 10.2112C2.97341 10.2704 2.84585 10.3769 2.76062 10.5147C2.67538 10.6524 2.63706 10.8141 2.65137 10.9755C2.66569 11.1369 2.73187 11.2893 2.84002 11.4099C2.94818 11.5305 3.09248 11.6129 3.25135 11.6447L8.24914 12.6442Z" stroke="black" stroke-width="1.5" stroke-linecap="round" stroke-linejoin="round"/>
<path d="M8.25 12.6443L21.0105 3.42834" stroke="black" stroke-width="1.5" stroke-linecap="round" stroke-linejoin="round"/>
<path d="M12.46 16.3491L9.53033 19.2788C9.42544 19.3837 9.2918 19.4551 9.14632 19.4841C9.00083 19.513 8.85003 19.4982 8.71299 19.4414C8.57594 19.3846 8.45881 19.2885 8.3764 19.1652C8.29399 19.0418 8.25 18.8968 8.25 18.7485V12.6443" stroke="black" stroke-width="1.5" stroke-linecap="round" stroke-linejoin="round"/>
</svg>
