<svg width="80" height="80" viewBox="0 0 80 80" fill="none" xmlns="http://www.w3.org/2000/svg">
<g clip-path="url(#clip0_510_27650)">
<path d="M72.0527 9.51297L40.673 0.0989062C40.2337 -0.0329687 39.7654 -0.0329687 39.3259 0.0989062L7.94555 9.51297C6.9543 9.81031 6.27539 10.7228 6.27539 11.7578V46.2759C6.27539 50.7656 8.09305 55.3616 11.6776 59.9361C14.4152 63.4298 18.2029 66.9381 22.9349 70.3636C30.8845 76.118 38.7124 79.648 39.0418 79.7953C39.3463 79.9317 39.6729 80 39.9995 80C40.326 80 40.6526 79.9319 40.9571 79.7953C41.2863 79.648 49.1141 76.118 57.0637 70.3636C61.7957 66.9381 65.5832 63.4298 68.321 59.9361C71.9055 55.3617 73.7229 50.7658 73.7229 46.2759V11.7578C73.7229 10.7228 73.0443 9.81031 72.0527 9.51297Z" fill="#87C5FF"/>
<path d="M39.3691 37.7861C41.8362 40.2076 42.8098 43.7584 41.9202 47.0905C41.0307 50.4227 38.4144 53.0251 35.0646 53.91C31.7149 54.7949 28.1453 53.8264 25.7111 51.3723C22.051 47.6026 22.1034 41.6107 25.8287 37.9049C29.5542 34.1991 35.5778 34.1471 39.3674 37.7879L39.3691 37.7861Z" stroke="#042885" stroke-width="1.5" stroke-linejoin="round"/>
<path d="M39.498 37.497L55.9951 21" stroke="#042885" stroke-width="1.5" stroke-linecap="round" stroke-linejoin="round"/>
<path d="M46.5859 30.6071L51.8538 35.8474L57.9998 29.7338L52.7318 24.4935L46.5859 30.6071Z" stroke="#042885" stroke-width="1.5" stroke-linejoin="round"/>
</g>
<defs>
<clipPath id="clip0_510_27650">
<rect width="80" height="80" fill="white"/>
</clipPath>
</defs>
</svg>
