<svg width="64" height="64" viewBox="0 0 64 64" fill="none" xmlns="http://www.w3.org/2000/svg">
<path fill-rule="evenodd" clip-rule="evenodd" d="M6.58824 24.0588C5.71153 24.0588 5 23.3473 5 22.4706V16.1176C5 9.98706 9.98706 5 16.1176 5H22.4706C23.3473 5 24.0588 5.71153 24.0588 6.58824C24.0588 7.46494 23.3473 8.17647 22.4706 8.17647H16.1176C11.7405 8.17647 8.17647 11.7373 8.17647 16.1176V22.4706C8.17647 23.3473 7.46494 24.0588 6.58824 24.0588ZM57.4118 24.0588C56.5351 24.0588 55.8235 23.3473 55.8235 22.4706V16.1176C55.8235 11.7373 52.2595 8.17647 47.8824 8.17647H41.5294C40.6527 8.17647 39.9412 7.46494 39.9412 6.58824C39.9412 5.71153 40.6527 5 41.5294 5H47.8824C54.0129 5 59 9.98706 59 16.1176V22.4706C59 23.3473 58.2885 24.0588 57.4118 24.0588ZM22.4706 30.4118C21.5939 30.4118 20.8824 29.7002 20.8824 28.8235V22.4706C20.8824 21.5939 21.5939 20.8824 22.4706 20.8824C23.3473 20.8824 24.0588 21.5939 24.0588 22.4706V28.8235C24.0588 29.7002 23.3473 30.4118 22.4706 30.4118ZM41.5294 30.4118C40.6527 30.4118 39.9412 29.7002 39.9412 28.8235V22.4706C39.9412 21.5939 40.6527 20.8824 41.5294 20.8824C42.4061 20.8824 43.1176 21.5939 43.1176 22.4706V28.8235C43.1176 29.7002 42.4061 30.4118 41.5294 30.4118ZM28.8235 36.7647C27.9468 36.7647 27.2353 36.0532 27.2353 35.1765C27.2353 34.2998 27.9468 33.5882 28.8235 33.5882C29.7002 33.5882 30.4118 32.8735 30.4118 32V22.4706C30.4118 21.5939 31.1233 20.8824 32 20.8824C32.8767 20.8824 33.5882 21.5939 33.5882 22.4706V32C33.5882 34.6269 31.4505 36.7647 28.8235 36.7647ZM32 46.2941C28.4042 46.2941 25.3548 45.068 22.9344 42.6539C22.3149 42.0313 22.3149 41.0275 22.9344 40.4049C23.5569 39.7855 24.5607 39.7855 25.1833 40.4049C27.0066 42.2314 29.2365 43.1176 32 43.1176C34.7635 43.1176 36.9934 42.2314 38.8167 40.4049C39.4393 39.7855 40.4431 39.7855 41.0656 40.4049C41.6851 41.0275 41.6851 42.0313 41.0656 42.6539C38.6452 45.068 35.5958 46.2941 32 46.2941ZM22.4706 59H16.1176C9.98706 59 5 54.0129 5 47.8824V41.5294C5 40.6527 5.71153 39.9412 6.58824 39.9412C7.46494 39.9412 8.17647 40.6527 8.17647 41.5294V47.8824C8.17647 52.2627 11.7405 55.8235 16.1176 55.8235H22.4706C23.3473 55.8235 24.0588 56.5351 24.0588 57.4118C24.0588 58.2885 23.3473 59 22.4706 59ZM47.8824 59H41.5294C40.6527 59 39.9412 58.2885 39.9412 57.4118C39.9412 56.5351 40.6527 55.8235 41.5294 55.8235H47.8824C52.2595 55.8235 55.8235 52.2627 55.8235 47.8824V41.5294C55.8235 40.6527 56.5351 39.9412 57.4118 39.9412C58.2885 39.9412 59 40.6527 59 41.5294V47.8824C59 54.0129 54.0129 59 47.8824 59Z" fill="white"/>
</svg>
