<svg width="103" height="61" viewBox="0 0 103 61" fill="none" xmlns="http://www.w3.org/2000/svg">
<path d="M0.988701 1.00821C0.436452 1.01445 -0.00617623 1.4672 6.38366e-05 2.01945C0.00630397 2.5717 0.459049 3.01433 1.0113 3.00809L0.988701 1.00821ZM95.9414 60.3295C96.3995 60.638 97.0209 60.5167 97.3294 60.0586L102.357 52.5937C102.665 52.1356 102.544 51.5142 102.086 51.2057C101.628 50.8972 101.006 51.0184 100.698 51.4765L96.2292 58.112L89.5937 53.6432C89.1356 53.3347 88.5141 53.4559 88.2056 53.914C87.8971 54.3721 88.0184 54.9936 88.4765 55.3021L95.9414 60.3295ZM1.0113 3.00809C15.8288 2.84066 36.494 1.85511 54.9738 8.50747C64.1878 11.8243 72.8302 17.0337 79.9092 25.1806C86.988 33.3272 92.5466 44.4607 95.5185 59.6915L97.4815 59.3085C94.4534 43.7894 88.762 32.3197 81.4189 23.8688C74.0761 15.4183 65.1247 10.036 55.6512 6.62569C36.756 -0.176221 15.6712 0.842311 0.988701 1.00821L1.0113 3.00809Z" fill="#87C5FF"/>
</svg>
