<svg width="75" height="48" viewBox="0 0 75 48" fill="none" xmlns="http://www.w3.org/2000/svg">
<path d="M41.5 20C41.5 17.7867 39.7133 16 37.5 16C35.2867 16 33.5 17.7867 33.5 20C33.5 22.2133 35.2867 24 37.5 24C38.0467 24 38.58 23.8933 39.06 23.68" stroke="#0E53EF" stroke-width="1.5" stroke-miterlimit="10" stroke-linecap="round" stroke-linejoin="round"/>
<path d="M30.6733 31.44L32.1267 32.28C33.18 32.9067 34.54 32.5333 35.1667 31.48L35.3133 31.2267C36.5133 29.1333 38.4867 29.1333 39.7 31.2267L39.8467 31.48C40.4733 32.5333 41.8333 32.9067 42.8867 32.28L45.1933 30.96C46.4067 30.2667 46.82 28.7067 46.1267 27.5067C44.9133 25.4133 45.9 23.7067 48.3133 23.7067C49.7 23.7067 50.8467 22.5733 50.8467 21.1733V18.8267C50.8467 17.44 49.7133 16.2933 48.3133 16.2933C46.9667 16.2933 46.06 15.76 45.74 14.92C45.4867 14.2667 45.5933 13.4133 46.1267 12.4933C46.82 11.28 46.4067 9.73333 45.1933 9.04L44.1133 8.42667" stroke="#0E53EF" stroke-width="1.5" stroke-miterlimit="10" stroke-linecap="round" stroke-linejoin="round"/>
<path d="M39.6867 8.77333C38.4867 10.8667 36.5134 10.8667 35.3001 8.77333L35.1534 8.52C34.5401 7.46666 33.1801 7.09333 32.1267 7.72L29.8201 9.04C28.6067 9.73333 28.1934 11.2933 28.8867 12.5067C30.1001 14.5867 29.1134 16.2933 26.7001 16.2933C25.3134 16.2933 24.1667 17.4267 24.1667 18.8267V21.1733C24.1667 22.56 25.3001 23.7067 26.7001 23.7067C29.1134 23.7067 30.1001 25.4133 28.8867 27.5067" stroke="#0E53EF" stroke-width="1.5" stroke-miterlimit="10" stroke-linecap="round" stroke-linejoin="round"/>
<rect x="28" y="44" width="18" height="4" rx="2" fill="#0E53EF"/>
</svg>
