<svg width="75" height="48" viewBox="0 0 75 48" fill="none" xmlns="http://www.w3.org/2000/svg">
<path d="M40.5 20C40.5 17.7867 38.7133 16 36.5 16C34.2867 16 32.5 17.7867 32.5 20C32.5 22.2133 34.2867 24 36.5 24C37.0467 24 37.58 23.8933 38.06 23.68" stroke="#87C5FF" stroke-width="1.5" stroke-miterlimit="10" stroke-linecap="round" stroke-linejoin="round"/>
<path d="M29.6733 31.44L31.1267 32.28C32.18 32.9067 33.54 32.5333 34.1667 31.48L34.3133 31.2267C35.5133 29.1333 37.4867 29.1333 38.7 31.2267L38.8467 31.48C39.4733 32.5333 40.8333 32.9067 41.8867 32.28L44.1933 30.96C45.4067 30.2667 45.82 28.7067 45.1267 27.5067C43.9133 25.4133 44.9 23.7067 47.3133 23.7067C48.7 23.7067 49.8467 22.5733 49.8467 21.1733V18.8267C49.8467 17.44 48.7133 16.2933 47.3133 16.2933C45.9667 16.2933 45.06 15.76 44.74 14.92C44.4867 14.2667 44.5933 13.4133 45.1267 12.4933C45.82 11.28 45.4067 9.73333 44.1933 9.04L43.1133 8.42667" stroke="#87C5FF" stroke-width="1.5" stroke-miterlimit="10" stroke-linecap="round" stroke-linejoin="round"/>
<path d="M38.6865 8.77333C37.4865 10.8667 35.5132 10.8667 34.2998 8.77333L34.1532 8.52C33.5398 7.46666 32.1798 7.09333 31.1265 7.72L28.8198 9.04C27.6065 9.73333 27.1932 11.2933 27.8865 12.5067C29.0998 14.5867 28.1132 16.2933 25.6998 16.2933C24.3132 16.2933 23.1665 17.4267 23.1665 18.8267V21.1733C23.1665 22.56 24.2998 23.7067 25.6998 23.7067C28.1132 23.7067 29.0998 25.4133 27.8865 27.5067" stroke="#87C5FF" stroke-width="1.5" stroke-miterlimit="10" stroke-linecap="round" stroke-linejoin="round"/>
<rect x="28.5" y="44.5" width="17" height="3" rx="1.5" fill="#87C5FF" stroke="#87C5FF"/>
</svg>
