<svg width="75" height="48" viewBox="0 0 75 48" fill="none" xmlns="http://www.w3.org/2000/svg">
<path d="M37.5 18.6667V25.3333" stroke="#C4C4C4" stroke-width="1.5" stroke-linecap="round" stroke-linejoin="round"/>
<path d="M47.8867 20.3467C48.7001 21.9467 49.1667 23.7467 49.1667 25.6667C49.1667 32.1067 43.9401 37.3333 37.5001 37.3333" stroke="#C4C4C4" stroke-width="1.5" stroke-linecap="round" stroke-linejoin="round"/>
<path d="M25.8334 25.6667C25.8334 19.2267 31.0601 14 37.5001 14C40.1401 14 42.5668 14.88 44.5134 16.3467" stroke="#C4C4C4" stroke-width="1.5" stroke-linecap="round" stroke-linejoin="round"/>
<path d="M33.5 10.6667H41.5" stroke="#C4C4C4" stroke-width="1.5" stroke-miterlimit="10" stroke-linecap="round" stroke-linejoin="round"/>
<path d="M33.2866 32.68L33.2866 34.2267C33.2866 36.1333 31.9266 36.92 30.2733 35.96L28.94 35.1867L27.6066 34.4133C25.9533 33.4533 25.9533 31.8933 27.6066 30.9333L28.94 30.16L30.2733 29.3867C31.9266 28.4267 33.2866 29.2133 33.2866 31.12L33.2866 32.68Z" stroke="#C4C4C4" stroke-width="1.5" stroke-miterlimit="10" stroke-linecap="round" stroke-linejoin="round"/>
</svg>
