<svg width="33" height="32" viewBox="0 0 33 32" fill="none" xmlns="http://www.w3.org/2000/svg">
<path d="M8.75333 9.41333C9.1 9.36 9.46 9.33333 9.83333 9.33333H23.1667C23.5133 9.33333 23.8467 9.34665 24.1667 9.39998C27.6067 9.79998 29.8333 12.3467 29.8333 16V22.6667C29.8333 26.6667 27.1667 29.3333 23.1667 29.3333H10.6733C11.0867 28.9867 11.4467 28.56 11.7267 28.08C12.22 27.28 12.5 26.3333 12.5 25.3333C12.5 22.3867 10.1133 20 7.16667 20C5.56667 20 4.14 20.7066 3.16667 21.8133V16C3.16667 14.84 3.39333 13.7866 3.80667 12.8933" stroke="#0E53EF" stroke-width="1.5" stroke-linecap="round" stroke-linejoin="round"/>
<path d="M24.1667 9.39996C23.8467 9.34662 23.5133 9.33331 23.1667 9.33331H9.83333C9.46 9.33331 9.1 9.35997 8.75333 9.4133C8.94 9.03997 9.20667 8.69335 9.52667 8.37335L13.86 4.02667C15.6867 2.21333 18.6467 2.21333 20.4733 4.02667L22.8067 6.38661C23.66 7.22661 24.1133 8.29329 24.1667 9.39996Z" stroke="#0E53EF" stroke-width="1.5" stroke-linecap="round" stroke-linejoin="round"/>
<path d="M12.5 25.3333C12.5 26.3333 12.22 27.28 11.7267 28.08C10.8067 29.6267 9.11333 30.6667 7.16667 30.6667C5.22 30.6667 3.52667 29.6267 2.60667 28.08C2.11333 27.28 1.83333 26.3333 1.83333 25.3333C1.83333 22.3867 4.22 20 7.16667 20C10.1133 20 12.5 22.3867 12.5 25.3333Z" stroke="#0E53EF" stroke-width="1.5" stroke-miterlimit="10" stroke-linecap="round" stroke-linejoin="round"/>
<path d="M9.15334 25.3066H5.18" stroke="#0E53EF" stroke-width="1.5" stroke-miterlimit="10" stroke-linecap="round" stroke-linejoin="round"/>
<path d="M7.16667 23.36V27.3467" stroke="#0E53EF" stroke-width="1.5" stroke-miterlimit="10" stroke-linecap="round" stroke-linejoin="round"/>
<path d="M29.8333 16.6667H25.8333C24.3667 16.6667 23.1667 17.8667 23.1667 19.3333C23.1667 20.8 24.3667 22 25.8333 22H29.8333" stroke="#0E53EF" stroke-width="1.5" stroke-linecap="round" stroke-linejoin="round"/>
</svg>
