<svg width="33" height="32" viewBox="0 0 33 32" fill="none" xmlns="http://www.w3.org/2000/svg">
<path d="M8.75333 9.41325C9.1 9.35992 9.46 9.33325 9.83333 9.33325H23.1667C23.5133 9.33325 23.8467 9.34657 24.1667 9.3999C27.6067 9.7999 29.8333 12.3466 29.8333 15.9999V22.6666C29.8333 26.6666 27.1667 29.3333 23.1667 29.3333H10.6733C11.0867 28.9866 11.4467 28.5599 11.7267 28.0799C12.22 27.2799 12.5 26.3333 12.5 25.3333C12.5 22.3866 10.1133 19.9999 7.16667 19.9999C5.56667 19.9999 4.14 20.7066 3.16667 21.8132V15.9999C3.16667 14.8399 3.39333 13.7866 3.80667 12.8932" stroke="#87C5FF" stroke-width="1.5" stroke-linecap="round" stroke-linejoin="round"/>
<path d="M24.1667 9.40004C23.8467 9.3467 23.5133 9.33339 23.1667 9.33339H9.83333C9.46 9.33339 9.1 9.36005 8.75333 9.41338C8.94 9.04005 9.20667 8.69343 9.52667 8.37343L13.86 4.02675C15.6867 2.21341 18.6467 2.21341 20.4733 4.02675L22.8067 6.38669C23.66 7.22669 24.1133 8.29337 24.1667 9.40004Z" stroke="#87C5FF" stroke-width="1.5" stroke-linecap="round" stroke-linejoin="round"/>
<path d="M12.5 25.3333C12.5 26.3333 12.22 27.28 11.7267 28.08C10.8067 29.6267 9.11333 30.6667 7.16667 30.6667C5.22 30.6667 3.52667 29.6267 2.60667 28.08C2.11333 27.28 1.83333 26.3333 1.83333 25.3333C1.83333 22.3867 4.22 20 7.16667 20C10.1133 20 12.5 22.3867 12.5 25.3333Z" stroke="#87C5FF" stroke-width="1.5" stroke-miterlimit="10" stroke-linecap="round" stroke-linejoin="round"/>
<path d="M9.15334 25.3066H5.18" stroke="#87C5FF" stroke-width="1.5" stroke-miterlimit="10" stroke-linecap="round" stroke-linejoin="round"/>
<path d="M7.16667 23.3601V27.3468" stroke="#87C5FF" stroke-width="1.5" stroke-miterlimit="10" stroke-linecap="round" stroke-linejoin="round"/>
<path d="M29.8333 16.6667H25.8333C24.3667 16.6667 23.1667 17.8667 23.1667 19.3334C23.1667 20.8001 24.3667 22.0001 25.8333 22.0001H29.8333" stroke="#87C5FF" stroke-width="1.5" stroke-linecap="round" stroke-linejoin="round"/>
</svg>
