<svg width="75" height="48" viewBox="0 0 75 48" fill="none" xmlns="http://www.w3.org/2000/svg">
<path d="M41.5 24C41.5 21.7867 39.7133 20 37.5 20C35.2867 20 33.5 21.7867 33.5 24C33.5 26.2133 35.2867 28 37.5 28C38.0467 28 38.58 27.8933 39.06 27.68" stroke="#C4C4C4" stroke-width="1.5" stroke-miterlimit="10" stroke-linecap="round" stroke-linejoin="round"/>
<path d="M30.6733 35.44L32.1267 36.28C33.18 36.9067 34.54 36.5333 35.1667 35.48L35.3133 35.2267C36.5133 33.1333 38.4867 33.1333 39.7 35.2267L39.8467 35.48C40.4733 36.5333 41.8333 36.9067 42.8867 36.28L45.1933 34.96C46.4067 34.2667 46.82 32.7067 46.1267 31.5067C44.9133 29.4133 45.9 27.7067 48.3133 27.7067C49.7 27.7067 50.8467 26.5733 50.8467 25.1733V22.8267C50.8467 21.44 49.7133 20.2933 48.3133 20.2933C46.9667 20.2933 46.06 19.76 45.74 18.92C45.4867 18.2667 45.5933 17.4133 46.1267 16.4933C46.82 15.28 46.4067 13.7333 45.1933 13.04L44.1133 12.4267" stroke="#C4C4C4" stroke-width="1.5" stroke-miterlimit="10" stroke-linecap="round" stroke-linejoin="round"/>
<path d="M39.6867 12.7733C38.4867 14.8667 36.5134 14.8667 35.3001 12.7733L35.1534 12.52C34.5401 11.4667 33.1801 11.0933 32.1267 11.72L29.8201 13.04C28.6067 13.7333 28.1934 15.2933 28.8867 16.5067C30.1001 18.5867 29.1134 20.2933 26.7001 20.2933C25.3134 20.2933 24.1667 21.4267 24.1667 22.8267V25.1733C24.1667 26.56 25.3001 27.7067 26.7001 27.7067C29.1134 27.7067 30.1001 29.4133 28.8867 31.5067" stroke="#C4C4C4" stroke-width="1.5" stroke-miterlimit="10" stroke-linecap="round" stroke-linejoin="round"/>
</svg>
