<svg width="75" height="48" viewBox="0 0 75 48" fill="none" xmlns="http://www.w3.org/2000/svg">
<path d="M37.5 14.6667V21.3333" stroke="#0E53EF" stroke-width="1.5" stroke-linecap="round" stroke-linejoin="round"/>
<path d="M47.8867 16.3467C48.7001 17.9467 49.1667 19.7467 49.1667 21.6667C49.1667 28.1067 43.9401 33.3333 37.5001 33.3333" stroke="#0E53EF" stroke-width="1.5" stroke-linecap="round" stroke-linejoin="round"/>
<path d="M25.8334 21.6667C25.8334 15.2267 31.0601 10 37.5001 10C40.1401 10 42.5668 10.88 44.5134 12.3467" stroke="#0E53EF" stroke-width="1.5" stroke-linecap="round" stroke-linejoin="round"/>
<path d="M33.5 6.66666H41.5" stroke="#0E53EF" stroke-width="1.5" stroke-miterlimit="10" stroke-linecap="round" stroke-linejoin="round"/>
<path d="M33.2866 28.68L33.2866 30.2267C33.2866 32.1333 31.9266 32.92 30.2733 31.96L28.94 31.1867L27.6066 30.4133C25.9533 29.4533 25.9533 27.8933 27.6066 26.9333L28.94 26.16L30.2733 25.3867C31.9266 24.4267 33.2866 25.2133 33.2866 27.12L33.2866 28.68Z" stroke="#0E53EF" stroke-width="1.5" stroke-miterlimit="10" stroke-linecap="round" stroke-linejoin="round"/>
<rect x="28" y="44" width="18" height="4" rx="2" fill="#0E53EF"/>
</svg>
