<svg width="24" height="24" viewBox="0 0 24 24" fill="none" xmlns="http://www.w3.org/2000/svg">
<path d="M5 5H6.5V6.5H5V5Z" fill="white" stroke="white"/>
<path d="M8.75 3.25V2.75H8.25H3.25H2.75V3.25V8.25V8.75H3.25H8.25H8.75V8.25V3.25ZM9 2.5V9H2.5V2.5H9ZM5 19V17.5H6.5V19H5Z" fill="white" stroke="white"/>
<path d="M3.25 15.25H2.75V15.75V20.75V21.25H3.25H8.25H8.75V20.75V15.75V15.25H8.25H3.25ZM9 15V21.5H2.5V15H9ZM17.5 5H19V6.5H17.5V5Z" fill="white" stroke="white"/>
<path d="M21.25 3.25V2.75H20.75H15.75H15.25V3.25V8.25V8.75H15.75H20.75H21.25V8.25V3.25ZM12 3.75H12.5V3.25V2.5H12.75V4H12H11.5V4.5V6.5H11.25V3.75H12ZM9 12.5V12.75H5V12V11.5H4.5H3.25H2.75V12V12.75H2.5V11.25H5.25V12V12.5H5.75H9ZM13.75 12V11.25H19V11.5H14.5H14V12V12.75H11.25V12V11.5H10.75H10V11.25H10.75H11.25V10.75V10H11.5V12V12.5H12H13.25H13.75V12ZM12.5 7.5H12.75V9H12.5V7.5ZM20.75 15H21.5V15.25H20V13.75H20.25V14.5V15H20.75ZM18.75 17.5H21.5V17.75H19.5H19V18.25V19H18.75V17.5ZM17.75 16.5H17.5V16.25H17.75V16.5ZM16.5 17.5V19H13.75V18.75H15.75H16.25V18.25V17.5H16.5ZM16.5 15.25H16.25V13.75H17.75V14H17H16.5V14.5V15.25ZM13.75 15.75V15.25H13.25H11.25V15H14V16.5H13.75V15.75ZM15 9V2.5H21.5V9H15ZM21.5 12.75H21.25V11.25H21.5V12.75Z" fill="white" stroke="white"/>
<path d="M12 21.25H16.5V21.5H11.25V17.5H11.5V20.75V21.25H12ZM21.25 20.75V20H21.5V21.5H18.75V21.25H20.75H21.25V20.75Z" fill="white" stroke="white"/>
</svg>
