<svg width="64" height="64" viewBox="0 0 64 64" fill="none" xmlns="http://www.w3.org/2000/svg">
<path d="M56.5749 16.0521C50.2701 9.84343 41.5393 6 31.8919 6C22.3013 6 13.6165 9.79835 7.32031 15.9428" stroke="black" stroke-width="3" stroke-linecap="round" stroke-linejoin="round"/>
<path d="M8.88928 39.2991V39.2223C8.88928 26.4583 19.2364 16.1111 32.0004 16.1111" stroke="black" stroke-width="3" stroke-linecap="round" stroke-linejoin="round"/>
<path d="M41.5586 18.1745C49.5526 21.8109 55.1105 29.8675 55.1105 39.2223V39.2395" stroke="black" stroke-width="3" stroke-linecap="round" stroke-linejoin="round"/>
<path d="M19 49.3333V39.2223C19 32.0425 24.8203 26.2223 32 26.2223C39.1797 26.2223 45 32.0425 45 39.2223V49.3333" stroke="black" stroke-width="3" stroke-linecap="round" stroke-linejoin="round"/>
<path d="M23.3685 58C25.9857 57.3539 27.6671 54.5941 27.6671 52.2613C27.6671 49.7805 27.6671 45.9156 27.6671 40.6667C27.6671 38.2735 29.6072 36.3333 32.0004 36.3333C34.3937 36.3333 36.3337 38.2735 36.3337 40.6667V52.2613" stroke="black" stroke-width="3" stroke-linecap="round" stroke-linejoin="round"/>
</svg>
