<svg width="64" height="64" viewBox="0 0 64 64" fill="none" xmlns="http://www.w3.org/2000/svg">
<path d="M56.5749 16.0521C50.2701 9.84343 41.5393 6 31.8919 6C22.3013 6 13.6165 9.79835 7.32031 15.9428" stroke="white" stroke-width="3" stroke-linecap="round" stroke-linejoin="round"/>
<path d="M8.8894 39.2991V39.2223C8.8894 26.4583 19.2365 16.1111 32.0005 16.1111" stroke="white" stroke-width="3" stroke-linecap="round" stroke-linejoin="round"/>
<path d="M41.5586 18.1746C49.5526 21.811 55.1105 29.8675 55.1105 39.2223V39.2395" stroke="white" stroke-width="3" stroke-linecap="round" stroke-linejoin="round"/>
<path d="M19 49.3334V39.2223C19 32.0426 24.8203 26.2223 32 26.2223C39.1797 26.2223 45 32.0426 45 39.2223V49.3334" stroke="white" stroke-width="3" stroke-linecap="round" stroke-linejoin="round"/>
<path d="M23.3684 58C25.9856 57.3538 27.6669 54.5941 27.6669 52.2613C27.6669 49.7805 27.6669 45.9156 27.6669 40.6666C27.6669 38.2734 29.6071 36.3333 32.0003 36.3333C34.3936 36.3333 36.3336 38.2734 36.3336 40.6666V52.2613" stroke="white" stroke-width="3" stroke-linecap="round" stroke-linejoin="round"/>
</svg>
