<svg width="75" height="48" viewBox="0 0 75 48" fill="none" xmlns="http://www.w3.org/2000/svg">
<path d="M29.7533 13.4132C30.1 13.3599 30.46 13.3333 30.8333 13.3333H44.1667C44.5133 13.3333 44.8467 13.3466 45.1667 13.3999C48.6067 13.7999 50.8333 16.3466 50.8333 19.9999V26.6666C50.8333 30.6666 48.1667 33.3333 44.1667 33.3333H31.6733C32.0867 32.9866 32.4467 32.5599 32.7267 32.0799C33.22 31.2799 33.5 30.3333 33.5 29.3333C33.5 26.3866 31.1133 23.9999 28.1667 23.9999C26.5667 23.9999 25.14 24.7066 24.1667 25.8132V19.9999C24.1667 18.8399 24.3933 17.7866 24.8067 16.8932" stroke="#87C5FF" stroke-width="1.5" stroke-linecap="round" stroke-linejoin="round"/>
<path d="M45.1667 13.4C44.8467 13.3467 44.5133 13.3334 44.1667 13.3334H30.8333C30.46 13.3334 30.1 13.3601 29.7533 13.4134C29.94 13.0401 30.2067 12.6934 30.5267 12.3734L34.86 8.02675C36.6867 6.21341 39.6467 6.21341 41.4733 8.02675L43.8067 10.3867C44.66 11.2267 45.1133 12.2934 45.1667 13.4Z" stroke="#87C5FF" stroke-width="1.5" stroke-linecap="round" stroke-linejoin="round"/>
<path d="M33.5 29.3333C33.5 30.3333 33.22 31.28 32.7267 32.08C31.8067 33.6267 30.1133 34.6667 28.1667 34.6667C26.22 34.6667 24.5267 33.6267 23.6067 32.08C23.1133 31.28 22.8333 30.3333 22.8333 29.3333C22.8333 26.3867 25.22 24 28.1667 24C31.1133 24 33.5 26.3867 33.5 29.3333Z" stroke="#87C5FF" stroke-width="1.5" stroke-miterlimit="10" stroke-linecap="round" stroke-linejoin="round"/>
<path d="M30.1533 29.3066H26.18" stroke="#87C5FF" stroke-width="1.5" stroke-miterlimit="10" stroke-linecap="round" stroke-linejoin="round"/>
<path d="M28.1667 27.3601V31.3468" stroke="#87C5FF" stroke-width="1.5" stroke-miterlimit="10" stroke-linecap="round" stroke-linejoin="round"/>
<path d="M50.8333 20.6667H46.8333C45.3667 20.6667 44.1667 21.8667 44.1667 23.3334C44.1667 24.8001 45.3667 26.0001 46.8333 26.0001H50.8333" stroke="#87C5FF" stroke-width="1.5" stroke-linecap="round" stroke-linejoin="round"/>
<rect x="28.5" y="44.5" width="17" height="3" rx="1.5" fill="#87C5FF" stroke="#87C5FF"/>
</svg>
