<svg width="64" height="64" viewBox="0 0 64 64" fill="none" xmlns="http://www.w3.org/2000/svg">
<path d="M56.5749 16.0521C50.2701 9.84343 41.5393 6 31.8919 6C22.3013 6 13.6165 9.79835 7.32031 15.9428" stroke="#87C5FF" stroke-width="3" stroke-linecap="round" stroke-linejoin="round"/>
<path d="M8.88867 39.2991V39.2223C8.88867 26.4583 19.2358 16.1111 31.9998 16.1111" stroke="#87C5FF" stroke-width="3" stroke-linecap="round" stroke-linejoin="round"/>
<path d="M41.5586 18.1746C49.5526 21.811 55.1105 29.8675 55.1105 39.2223V39.2395" stroke="#87C5FF" stroke-width="3" stroke-linecap="round" stroke-linejoin="round"/>
<path d="M19 49.3334V39.2223C19 32.0426 24.8203 26.2223 32 26.2223C39.1797 26.2223 45 32.0426 45 39.2223V49.3334" stroke="#87C5FF" stroke-width="3" stroke-linecap="round" stroke-linejoin="round"/>
<path d="M23.3691 58C25.9863 57.3539 27.6677 54.5942 27.6677 52.2614C27.6677 49.7806 27.6677 45.9156 27.6677 40.6667C27.6677 38.2735 29.6078 36.3334 32.001 36.3334C34.3943 36.3334 36.3343 38.2735 36.3343 40.6667V52.2614" stroke="#87C5FF" stroke-width="3" stroke-linecap="round" stroke-linejoin="round"/>
</svg>
