<svg width="276" height="242" viewBox="0 0 276 242" fill="none" xmlns="http://www.w3.org/2000/svg">
<path d="M85.1591 15.1675C84.7144 15.316 84.2697 15.4646 83.825 15.6874C79.8969 17.3215 76.71 20.2183 74.783 24.0807C72.6337 28.3145 72.2631 33.2168 73.6713 37.7477C75.1536 42.2786 78.2664 45.9924 82.5651 48.1465C86.7896 50.3005 91.6812 50.6719 96.2021 49.2606C100.723 47.7751 104.429 44.6554 106.578 40.3474C108.728 36.1136 109.098 31.2113 107.69 26.6804C104.577 17.3215 94.4975 12.1221 85.1591 15.1675Z" fill="#FCCC54"/>
<path d="M85.0107 14.7218C75.3758 17.8415 70.1137 28.2403 73.2265 37.8963C76.3393 47.5523 86.7153 52.8259 96.3502 49.7063C105.985 46.5867 111.247 36.1879 108.134 26.5319C104.948 16.8759 94.5715 11.6022 85.0107 14.7218ZM107.616 26.6804C109.098 31.2113 108.727 36.0393 106.504 40.3474C104.355 44.5812 100.649 47.7751 96.1279 49.2606C91.6069 50.7462 86.7894 50.3748 82.4908 48.1465C78.2663 45.9925 75.0793 42.2786 73.597 37.7477C72.1148 33.2168 72.4853 28.3888 74.7088 24.0807C76.6357 20.2183 79.8227 17.3215 83.7507 15.6874C84.1954 15.5389 84.6401 15.3161 85.0848 15.1675C94.4974 12.1222 104.577 17.3215 107.616 26.6804Z" fill="url(#paint0_linear_510_22061)"/>
<path d="M85.0107 14.7218C80.3415 16.2074 76.5616 19.4756 74.3382 23.8579C72.1148 28.2403 71.7442 33.2168 73.2265 37.8963C74.7088 42.5757 77.9698 46.3638 82.3426 48.5921C86.7153 50.8205 91.681 51.1918 96.3502 49.7063C96.7949 49.5577 97.3137 49.4092 97.7584 49.1864C101.761 47.5523 105.022 44.5069 107.023 40.5702C109.246 36.1879 109.617 31.2113 108.134 26.5319C104.948 16.8759 94.5715 11.6022 85.0107 14.7218ZM107.171 26.829C108.579 31.2856 108.209 35.9651 106.133 40.1246C104.058 44.2841 100.427 47.3294 95.9796 48.815C91.5328 50.2262 86.8636 49.8549 82.7131 47.7751C78.5627 45.6953 75.524 42.0558 74.0417 37.5992C72.6336 33.1425 73.0041 28.4631 75.0793 24.3036C77.0063 20.5897 80.045 17.6929 83.899 16.1331C84.3437 15.9846 84.7883 15.7617 85.233 15.6132C94.4232 12.6421 104.206 17.6929 107.171 26.829Z" fill="#DDA526"/>
<path opacity="0.3" d="M94.9803 47.1664C103.241 44.7816 108 36.1396 105.611 27.864C103.221 19.5885 94.5882 14.8132 86.3279 17.198C78.0677 19.5829 73.3084 28.2249 75.6977 36.5004C78.087 44.776 86.7201 49.5513 94.9803 47.1664Z" fill="#BC700C"/>
<g opacity="0.4">
<path opacity="0.4" d="M77.5258 41.0159L79.9715 43.5413L87.9018 40.3474L85.3819 34.1081L93.1639 37.4506L96.1285 30.2457L98.5002 36.0393L106.579 32.7711L106.356 29.2058L100.353 31.657L96.2026 21.4067L91.3111 33.0682L79.2304 27.646L83.6031 38.4904L77.5258 41.0159Z" fill="#493107"/>
</g>
<path d="M77.2286 40.5702L79.6744 43.0956L87.6047 39.9017L85.0848 33.7367L92.7927 37.0049L95.8314 29.8L98.129 35.5936L106.282 32.3254L106.059 28.7601L100.056 31.2113L95.9055 20.9611L90.9398 32.6225L78.9333 27.2003L83.306 38.0448L77.2286 40.5702Z" fill="#C96E00"/>
<path opacity="0.3" d="M76.4883 37.302C73.8201 29.1315 78.3412 20.2925 86.4942 17.6186C89.9777 16.5044 93.6095 16.653 96.7965 17.8414C93.4612 16.4301 89.6071 16.133 85.8271 17.3215C77.6742 19.9954 73.153 28.7601 75.8212 37.0049C77.3777 41.6843 80.8612 45.1753 85.1601 46.8094C81.1577 45.101 77.8965 41.7586 76.4883 37.302Z" fill="#BC700C"/>
<path opacity="0.3" d="M96.2027 17.6187C100.205 19.327 103.54 22.6695 104.949 27.2004C107.617 35.3709 103.096 44.2098 94.9427 46.8838C91.4592 47.9979 87.8274 47.8494 84.5663 46.5867C87.9015 47.9979 91.6815 48.2208 95.3874 47.0323C103.54 44.3584 108.062 35.5937 105.393 27.3489C103.911 22.6695 100.427 19.2527 96.2027 17.6187Z" fill="#BC700C"/>
<path d="M202.059 13.9962C201.588 13.7324 201.094 13.5464 200.65 13.3328C196.328 11.5262 191.582 11.3276 187.079 12.7623C182.07 14.3452 177.98 17.8428 175.576 22.5063C173.172 27.1698 172.715 32.5267 174.295 37.5471C175.874 42.5674 179.364 46.6655 184.017 49.0752C188.67 51.4849 194.015 51.9423 199.025 50.3593C204.034 48.7764 208.123 45.2788 210.527 40.6154C215.527 30.9216 211.731 19.0065 202.059 13.9962Z" fill="#FCCC54"/>
<path d="M202.272 13.5514C192.339 8.42298 180.172 12.315 175.055 22.2701C169.937 32.2252 173.821 44.4191 183.754 49.5476C193.687 54.676 205.854 50.784 210.971 40.8289C216.089 30.8738 212.205 18.6799 202.272 13.5514ZM210.5 40.5651C208.096 45.2286 204.006 48.7261 198.997 50.309C193.988 51.892 188.67 51.4849 183.989 49.0249C179.336 46.6152 175.846 42.5171 174.267 37.4968C172.688 32.4764 173.094 27.1471 175.549 22.456C177.953 17.7925 182.042 14.295 187.051 12.712C191.554 11.2774 196.3 11.4759 200.622 13.2825C201.116 13.4685 201.588 13.7323 202.031 13.9459C211.731 19.0065 215.527 30.9216 210.5 40.5651Z" fill="url(#paint1_linear_510_22061)"/>
<path d="M202.272 13.5514C197.514 11.0689 192.041 10.6165 186.881 12.2824C181.771 13.9206 177.582 17.4734 175.055 22.2701C172.605 27.0893 172.126 32.5242 173.788 37.6953C175.423 42.8161 178.968 47.0147 183.754 49.5476C184.225 49.8114 184.747 50.0476 185.241 50.2335C189.668 52.113 194.542 52.3066 199.145 50.8166C204.255 49.1784 208.444 45.6255 210.971 40.8289C216.089 30.8738 212.205 18.6798 202.272 13.5514ZM210.056 40.3515C207.725 44.9094 203.708 48.3015 198.877 49.8517C193.995 51.4296 188.778 50.9673 184.23 48.6304C179.682 46.2936 176.298 42.2683 174.751 37.4264C173.177 32.5342 173.638 27.3054 175.97 22.7475C178.301 18.1895 182.318 14.7975 187.149 13.2472C191.524 11.8176 196.17 12.0714 200.387 13.8052C200.881 13.9911 201.324 14.2047 201.796 14.4685C211.23 19.2829 214.938 30.919 210.056 40.3515Z" fill="#DDA526"/>
<path opacity="0.3" d="M183.532 45.8352C191.422 51.1072 202.082 48.9713 207.342 41.0646C212.603 33.1578 210.472 22.4744 202.583 17.2025C194.694 11.9305 184.033 14.0664 178.773 21.9731C173.512 29.8799 175.643 40.5633 183.532 45.8352Z" fill="#BC700C"/>
<path d="M198.08 19.0004L185.501 28.854L190.829 36.4183L200.315 35.1206L198.08 19.0004Z" fill="#C96E00"/>
<path d="M185.501 28.854L194.084 29.1774L200.315 35.1207L190.829 36.4184L185.501 28.854Z" fill="#D98117"/>
<path d="M185.163 29.7702L190.199 37.7204L199.996 35.97L187.992 43.0924L185.163 29.7702Z" fill="#C96E00"/>
<path opacity="0.3" d="M178.109 24.3829C182.441 15.9731 192.811 12.6137 201.229 17.006C204.812 18.893 207.462 21.8178 209.031 25.2727C207.552 21.5062 204.787 18.2523 200.971 16.2974C192.58 11.9554 182.183 15.2645 177.85 23.6743C175.351 28.5212 175.383 33.936 177.459 38.5518C175.671 34.1043 175.727 28.9685 178.109 24.3829Z" fill="#BC700C"/>
<path opacity="0.3" d="M208.723 24.5919C210.511 29.0393 210.433 34.2531 208.079 38.8889C203.746 47.2987 193.377 50.6581 184.958 46.2658C181.325 44.4064 178.697 41.4038 177.128 37.9489C178.63 41.6375 181.368 44.8411 185.183 46.796C193.575 51.138 203.972 47.8289 208.304 39.4191C210.754 34.5998 210.721 29.1851 208.723 24.5919Z" fill="#BC700C"/>
<path d="M13.5457 91.467C13.1775 91.8627 12.8794 92.2989 12.5665 92.6797C9.78425 96.4542 8.45946 101.025 8.77566 105.748C9.11472 111 11.529 115.814 15.4753 119.266C19.4216 122.718 24.5048 124.44 29.7475 124.101C34.9901 123.763 39.7948 121.345 43.2406 117.392C46.6863 113.439 48.4049 108.348 48.0659 103.096C47.7268 97.8441 45.3125 93.0307 41.3662 89.5785C33.1635 82.401 20.7095 83.2511 13.5457 91.467Z" fill="#FCCC54"/>
<path d="M13.1654 91.1534C5.82483 99.5948 6.69408 112.362 15.1219 119.717C23.5497 127.071 36.295 126.202 43.6356 117.761C50.9761 109.319 50.1069 96.552 41.679 89.1975C33.2512 81.8431 20.506 82.712 13.1654 91.1534ZM41.3109 89.5932C45.2572 93.0455 47.6715 97.8588 48.0105 103.111C48.3496 108.362 46.6863 113.439 43.1852 117.407C39.7395 121.359 34.9348 123.777 29.6921 124.116C24.4495 124.455 19.3811 122.788 15.42 119.281C11.4737 115.828 9.05938 111.015 8.72033 105.763C8.40412 101.039 9.72891 96.4689 12.5112 92.6944C12.8093 92.2582 13.1774 91.8625 13.4903 91.4817C20.7095 83.251 33.1635 82.4009 41.3109 89.5932Z" fill="url(#paint2_linear_510_22061)"/>
<path d="M13.1654 91.1534C9.6239 95.1911 7.87967 100.408 8.26319 105.826C8.63189 111.189 11.0758 116.113 15.1219 119.717C19.2084 123.25 24.3618 125.013 29.7703 124.629C35.1235 124.261 40.0388 121.813 43.6355 117.761C44.0037 117.365 44.3571 116.914 44.6551 116.478C47.5332 112.618 48.8836 107.922 48.5377 103.088C48.169 97.7252 45.7251 92.8011 41.679 89.1975C33.2512 81.843 20.506 82.712 13.1654 91.1534ZM40.998 89.974C44.8593 93.3303 47.1887 98.0478 47.5386 103.119C47.9032 108.245 46.2103 113.211 42.8603 117.078C39.5103 120.946 34.8014 123.279 29.7394 123.629C24.6221 123.993 19.6643 122.297 15.803 118.94C11.9416 115.584 9.61223 110.866 9.26237 105.796C8.92053 101.198 10.275 96.7379 12.9615 93.0484C13.2596 92.6122 13.5724 92.2314 13.9406 91.8357C20.8577 83.8048 33.0205 82.9735 40.998 89.974Z" fill="#DDA526"/>
<path opacity="0.3" d="M39.9851 117.089C46.9774 110.671 47.4508 99.7892 41.0425 92.7843C34.6341 85.7793 23.7708 85.3037 16.7785 91.7221C9.78622 98.1405 9.31284 109.022 15.7212 116.027C22.1295 123.032 32.9929 123.508 39.9851 117.089Z" fill="#BC700C"/>
<path d="M17.5042 96.2535L24.3086 111.413L33.247 107.902L34.2918 97.9907L17.5042 96.2535Z" fill="#C96E00"/>
<path d="M24.3086 111.413L26.7619 102.817L34.2918 97.9907L33.247 107.902L24.3086 111.413Z" fill="#D98117"/>
<path d="M25.1475 111.981L34.402 108.862L35.0682 98.5231L39.2646 112.425L25.1475 111.981Z" fill="#C96E00"/>
<path opacity="0.3" d="M17.8986 117.249C10.7811 111.027 9.99925 100.136 16.2652 92.9921C18.9491 89.9563 22.4163 88.0757 26.1395 87.373C22.1358 87.9135 18.3221 89.8278 15.5168 93.0742C9.30614 100.203 10.0327 111.109 17.1502 117.331C21.2516 120.92 26.5077 122.18 31.4769 121.262C26.7397 121.94 21.7749 120.661 17.8986 117.249Z" fill="#BC700C"/>
<path opacity="0.3" d="M25.4059 87.5105C30.1431 86.8324 35.178 88.1521 39.1096 91.549C46.2271 97.7711 47.0089 108.662 40.7429 115.806C38.0739 118.897 34.5366 120.737 30.8134 121.44C34.747 120.859 38.5054 118.96 41.3106 115.713C47.5213 108.584 46.7948 97.6781 39.6773 91.4559C35.5907 87.9226 30.3346 86.6623 25.4059 87.5105Z" fill="#BC700C"/>
<path d="M259.168 95.6616C258.796 95.3137 258.402 95.0388 258.008 94.7639C254.558 92.2382 250.314 91.0642 246.005 91.4568C241.217 91.8663 236.852 94.0659 233.693 97.8113C230.556 101.484 229.089 106.204 229.498 111.003C229.907 115.802 232.101 120.177 235.839 123.342C239.503 126.486 244.213 127.957 249.002 127.547C253.79 127.138 258.155 124.938 261.314 121.193C267.673 113.556 266.746 102.181 259.168 95.6616Z" fill="#FCCC54"/>
<path d="M259.421 95.3397C251.647 88.6827 239.89 89.6507 233.321 97.4633C226.678 105.254 227.644 117.037 235.44 123.621C243.214 130.278 254.971 129.31 261.54 121.497C268.204 113.633 267.217 101.924 259.421 95.3397ZM261.241 121.171C258.104 124.843 253.717 127.116 248.929 127.525C244.14 127.935 239.452 126.392 235.766 123.321C232.101 120.177 229.834 115.781 229.425 110.982C229.016 106.183 230.556 101.484 233.62 97.7897C236.757 94.1172 241.144 91.8447 245.932 91.4352C250.241 91.0426 254.463 92.2896 257.935 94.7423C258.329 95.0172 258.723 95.2921 259.095 95.64C266.745 102.181 267.673 113.556 261.241 121.171Z" fill="url(#paint3_linear_510_22061)"/>
<path d="M259.421 95.3396C255.611 92.1528 250.85 90.5879 245.916 90.9544C240.982 91.3209 236.501 93.6449 233.321 97.4633C230.141 101.282 228.58 106.054 228.945 110.999C229.311 115.943 231.63 120.434 235.44 123.621C235.812 123.969 236.206 124.244 236.6 124.519C240.196 127.087 244.513 128.283 248.894 127.912C253.828 127.545 258.309 125.221 261.489 121.403C268.183 113.706 267.217 101.924 259.421 95.3396ZM260.847 120.896C257.804 124.517 253.533 126.665 248.839 127.023C244.145 127.381 239.58 125.954 236.04 122.926C232.427 119.877 230.284 115.596 229.926 110.892C229.569 106.187 230.993 101.613 234.014 98.0645C237.057 94.4436 241.328 92.2954 246.022 91.9374C250.237 91.5963 254.335 92.7273 257.734 95.1585C258.128 95.4334 258.522 95.7083 258.821 96.0347C266.223 102.344 267.142 113.478 260.847 120.896Z" fill="#DDA526"/>
<path opacity="0.3" d="M255.646 122.933C263.047 118.395 265.374 108.704 260.845 101.288C256.315 93.8718 246.643 91.5386 239.242 96.0766C231.842 100.615 229.514 110.305 234.044 117.721C238.574 125.137 248.246 127.471 255.646 122.933Z" fill="#BC700C"/>
<g opacity="0.4">
<path opacity="0.4" d="M255.842 111.522L255.962 111.348C257.149 109.677 256.793 107.34 255.227 106.041C255.163 106.022 255.117 105.939 255.053 105.92L253.212 104.609L254.418 102.874L253.443 102.167L252.237 103.903L251.544 103.419L252.751 101.684L250.973 100.392L249.767 102.127L245.976 99.4039L243.944 102.29L244.874 102.914L239.439 110.513L238.509 109.889L236.617 112.538L240.409 115.262L239.444 116.65L241.221 117.942L242.186 116.554L242.878 117.037L241.914 118.426L242.889 119.132L243.854 117.744L245.631 119.035C245.695 119.054 245.804 119.156 245.868 119.175C247.638 120.256 249.924 119.815 251.13 118.08L251.251 117.906C252.438 116.235 252.081 113.898 250.515 112.599C250.451 112.58 250.406 112.497 250.342 112.478C250.406 112.497 250.451 112.58 250.515 112.599C252.349 113.698 254.635 113.258 255.842 111.522ZM247 114.14C246.639 114.661 245.904 114.793 245.32 114.411L244.217 113.667L246.109 111.018L247.194 111.827C247.713 112.189 247.845 112.926 247.483 113.446L247 114.14ZM250.34 109.409C249.978 109.93 249.243 110.061 248.66 109.68L247.557 108.936L249.449 106.287L250.533 107.095C251.053 107.458 251.184 108.194 250.822 108.715L250.34 109.409Z" fill="#493107"/>
</g>
<path d="M255.698 111.061L255.819 110.888C257.006 109.216 256.649 106.879 255.083 105.58C255.019 105.561 254.974 105.478 254.91 105.459L253.069 104.148L254.275 102.413L253.3 101.706L252.094 103.442L251.401 102.958L252.607 101.223L250.83 99.9309L249.624 101.667L245.832 98.943L243.801 101.83L244.731 102.453L239.296 110.052L238.366 109.429L236.474 112.077L240.265 114.801L239.3 116.189L241.077 117.481L242.042 116.093L242.735 116.576L241.77 117.965L242.745 118.671L243.71 117.283L245.487 118.575C245.551 118.593 245.66 118.695 245.724 118.714C247.494 119.795 249.781 119.354 250.987 117.619L251.107 117.445C252.295 115.774 251.938 113.437 250.372 112.138C250.308 112.119 250.263 112.036 250.199 112.017C250.263 112.036 250.308 112.119 250.372 112.138C252.142 113.218 254.428 112.778 255.698 111.061ZM246.793 113.661C246.431 114.181 245.697 114.313 245.113 113.932L244.01 113.187L245.902 110.539L246.986 111.347C247.506 111.71 247.637 112.446 247.275 112.966L246.793 113.661ZM250.178 109.012C249.816 109.533 249.081 109.665 248.498 109.283L247.394 108.539L249.287 105.89L250.371 106.699C250.89 107.061 251.022 107.797 250.66 108.318L250.178 109.012Z" fill="#C96E00"/>
<path opacity="0.3" d="M235.593 99.9581C241.194 93.2867 251.156 92.5022 257.813 98.1157C260.66 100.542 262.406 103.754 263.076 107.123C262.564 103.483 260.737 100.01 257.715 97.373C251.058 91.7596 241.169 92.5656 235.495 99.2155C232.242 103.012 231.191 107.935 232.07 112.477C231.366 108.145 232.478 103.558 235.593 99.9581Z" fill="#BC700C"/>
<path opacity="0.3" d="M262.935 106.527C263.618 110.931 262.507 115.519 259.37 119.191C253.769 125.863 243.806 126.647 237.15 121.034C234.303 118.607 232.557 115.395 231.908 111.953C232.514 115.541 234.268 118.993 237.239 121.536C243.896 127.149 253.785 126.343 259.459 119.693C262.639 115.875 263.742 111.047 262.935 106.527Z" fill="#BC700C"/>
<circle cx="189.731" cy="115.684" r="9.55679" fill="#FF8C00"/>
<circle cx="86.2687" cy="218.316" r="9.55679" fill="#FF8C00"/>
<path d="M160.5 129.5C153.625 125.75 146.125 123.25 138 123.25C113.625 123.25 94.2503 142.625 94.2503 167C94.2503 175.125 96.7503 183.25 100.5 190.125" stroke="url(#paint4_linear_510_22061)" stroke-width="9.375" stroke-miterlimit="10" stroke-linecap="round" stroke-linejoin="round"/>
<path d="M114.874 204.5C121.749 208.875 129.249 210.75 137.999 210.75C162.374 210.75 181.749 191.375 181.749 167C181.749 158.875 179.249 150.75 175.499 143.875" stroke="url(#paint5_linear_510_22061)" stroke-width="9.375" stroke-miterlimit="10" stroke-linecap="round" stroke-linejoin="round"/>
<path d="M151.402 177.119C156.906 176.972 160.022 177.945 156.264 182.075C152.505 186.206 145.868 190.061 139.02 190.061C132.232 190.061 126.576 187.889 122.05 183.544C117.587 179.138 115.355 173.6 115.355 166.93C115.355 160.199 117.648 154.63 122.234 150.224C126.82 145.757 132.599 143.524 139.57 143.524C146.419 143.524 153.582 146.271 156.906 151.234C160.23 156.197 157.529 156.466 152.136 156.466C146.743 156.466 147.978 152.947 146.082 152.152C144.187 151.356 141.955 150.959 139.386 150.959C134.8 150.959 130.948 152.427 127.829 155.364C124.772 158.302 123.243 162.034 123.243 166.563C123.243 171.03 124.772 174.824 127.829 177.945C130.887 181.066 134.525 182.626 138.744 182.626C141.313 182.626 143.514 182.198 145.349 181.341C147.244 180.484 145.899 177.265 151.402 177.119Z" fill="#FF8C00"/>
<defs>
<linearGradient id="paint0_linear_510_22061" x1="74.4154" y1="23.6422" x2="106.887" y2="40.6885" gradientUnits="userSpaceOnUse">
<stop stop-color="#FCCC54"/>
<stop offset="0.9996" stop-color="#FE9C03"/>
</linearGradient>
<linearGradient id="paint1_linear_510_22061" x1="174.402" y1="23.7539" x2="211.709" y2="39.2469" gradientUnits="userSpaceOnUse">
<stop stop-color="#FCCC54"/>
<stop offset="0.9996" stop-color="#FE9C03"/>
</linearGradient>
<linearGradient id="paint2_linear_510_22061" x1="16.4043" y1="120.706" x2="40.4275" y2="88.1799" gradientUnits="userSpaceOnUse">
<stop stop-color="#FCCC54"/>
<stop offset="0.9996" stop-color="#FE9C03"/>
</linearGradient>
<linearGradient id="paint3_linear_510_22061" x1="232.421" y1="98.6064" x2="262.526" y2="120.268" gradientUnits="userSpaceOnUse">
<stop stop-color="#FCCC54"/>
<stop offset="0.9996" stop-color="#FE9C03"/>
</linearGradient>
<linearGradient id="paint4_linear_510_22061" x1="127.375" y1="123.25" x2="127.375" y2="190.125" gradientUnits="userSpaceOnUse">
<stop stop-color="#FFBF44"/>
<stop offset="1" stop-color="#FBD335"/>
</linearGradient>
<linearGradient id="paint5_linear_510_22061" x1="148.312" y1="143.875" x2="148.312" y2="210.75" gradientUnits="userSpaceOnUse">
<stop stop-color="#FFBF44"/>
<stop offset="1" stop-color="#FBD335"/>
</linearGradient>
</defs>
</svg>
